<?xml version="1.0" standalone="no"?>
<!DOCTYPE svg PUBLIC "-//W3C//DTD SVG 20010904//EN"
 "http://www.w3.org/TR/2001/REC-SVG-20010904/DTD/svg10.dtd">
<svg version="1.0" xmlns="http://www.w3.org/2000/svg"
 width="580.000000pt" height="386.000000pt" viewBox="0 0 580.000000 386.000000"
 preserveAspectRatio="xMidYMid meet">

<g transform="translate(0.000000,386.000000) scale(0.100000,-0.100000)"
fill="#000000" stroke="none">
<path d="M2953 3270 c-81 -17 -142 -51 -198 -112 -56 -61 -71 -92 -62 -130 6
-22 0 -30 -208 -237 -49 -49 -119 -111 -154 -138 -45 -33 -86 -78 -133 -144
-41 -58 -93 -116 -129 -145 -57 -45 -254 -260 -433 -472 l-79 -92 18 -56 c23
-72 79 -134 123 -134 17 0 81 25 144 55 62 30 125 57 141 61 27 6 27 6 25 -42
-3 -42 0 -49 23 -63 23 -12 33 -13 68 -2 49 14 76 51 86 117 4 30 11 44 22 44
18 0 15 -49 -8 -152 -16 -71 -5 -123 33 -151 43 -32 79 -15 100 48 12 39 23
53 47 62 48 20 65 55 63 129 -2 60 0 65 28 86 18 13 35 38 42 61 8 26 20 42
36 48 14 5 26 8 28 6 2 -2 -1 -32 -7 -66 -11 -58 -10 -65 8 -83 19 -18 22 -19
50 -4 46 23 91 81 98 123 13 84 10 81 160 143 77 32 167 69 200 83 54 23 62
24 77 10 27 -24 73 -7 115 42 39 45 129 89 388 193 55 22 165 72 245 110 80
38 170 81 201 95 126 59 189 211 145 345 -39 116 -218 218 -511 291 -98 24
-187 36 -415 55 -267 22 -331 25 -377 16z m331 -75 c388 -34 650 -98 795 -195
l45 -29 -30 -11 c-31 -12 -70 -45 -84 -71 -8 -14 -3 -14 48 -1 72 19 107 11
132 -31 32 -52 25 -114 -23 -184 -31 -47 -61 -43 -113 12 -41 44 -54 77 -54
139 -1 33 -6 30 -36 -21 -9 -14 -14 -15 -26 -6 -8 7 -58 30 -112 51 -90 36
-99 42 -115 78 -43 95 -135 140 -265 132 -66 -5 -98 -15 -168 -54 -25 -14 -34
-13 -96 6 -47 13 -98 20 -158 20 -49 1 -114 7 -145 14 -45 11 -63 11 -92 1
-34 -11 -36 -11 -39 9 -6 38 14 64 73 96 125 66 170 71 463 45z m279 -227 c51
-29 77 -64 84 -114 4 -33 1 -45 -22 -72 -56 -66 -289 -155 -408 -155 -49 0
-62 4 -83 25 -33 32 -42 94 -20 136 12 23 28 35 58 44 31 9 62 33 113 84 44
45 81 75 100 79 17 4 34 8 40 9 22 5 100 -15 138 -36z m-720 12 c51 -41 45
-150 -11 -202 -76 -72 -273 -130 -346 -102 -18 7 50 89 196 236 93 95 115 104
161 68z m298 -26 c67 -21 78 -28 69 -39 -7 -8 -27 -17 -45 -21 -110 -20 -166
-141 -116 -250 54 -119 220 -125 471 -19 114 48 161 81 187 134 12 24 24 45
26 48 7 6 137 -48 133 -56 -4 -6 -11 -10 -156 -81 -47 -23 -136 -75 -197 -116
-62 -40 -126 -80 -143 -89 -18 -9 -32 -26 -36 -43 -4 -15 -16 -37 -28 -50 -11
-13 -37 -55 -56 -95 -50 -101 -60 -99 -60 12 0 107 1 107 -100 56 -38 -19 -76
-35 -83 -35 -8 0 -28 -13 -45 -29 -17 -17 -47 -33 -69 -37 -58 -10 -71 -21
-83 -63 -8 -31 -21 -47 -65 -75 -30 -20 -57 -41 -61 -47 -4 -6 -10 -42 -14
-79 -4 -37 -19 -91 -33 -121 -29 -61 -32 -51 -18 66 6 52 5 75 -4 91 -8 12
-17 38 -20 58 -9 47 -31 58 -81 44 -63 -19 -64 -20 -64 -135 l0 -104 -37 -34
c-38 -34 -38 -36 -38 -112 l0 -78 -38 -18 c-30 -14 -39 -25 -49 -62 -6 -24
-15 -42 -20 -39 -12 8 -10 55 7 135 15 68 14 75 -6 148 -32 112 -64 171 -94
171 -20 0 -25 -6 -30 -37 -3 -21 -12 -56 -19 -79 -10 -31 -11 -54 -4 -98 9
-52 8 -61 -9 -85 -20 -26 -63 -42 -63 -23 0 6 6 37 14 69 8 32 14 96 13 143
-3 120 21 123 -386 -39 l-54 -22 94 102 c52 56 109 119 127 140 24 28 42 39
61 39 79 0 227 68 298 137 47 46 103 151 103 194 0 15 -9 38 -20 52 -11 14
-20 29 -20 34 0 11 75 83 109 106 18 12 29 14 44 5 12 -6 58 -8 116 -6 78 4
112 11 177 37 161 63 208 124 187 245 -6 33 -14 68 -17 77 -6 13 4 14 79 7 47
-5 121 -20 166 -34z m842 -335 c9 -12 17 -24 17 -28 0 -3 -26 -18 -57 -33
-369 -169 -587 -268 -593 -268 -4 0 4 30 19 66 l26 66 130 65 c71 36 166 86
210 112 112 64 205 72 248 20z m-1767 -297 c-32 -62 -72 -96 -164 -139 -110
-51 -119 -41 -38 45 38 40 90 88 116 107 26 19 60 54 76 77 l29 43 3 -42 c2
-29 -4 -56 -22 -91z m926 -54 c-3 -60 -9 -75 -38 -82 -14 -4 -82 -33 -152 -66
-70 -32 -141 -62 -157 -65 l-30 -7 39 34 c21 19 44 50 50 68 10 32 15 35 59
42 55 7 93 29 101 56 6 17 116 75 125 66 2 -2 4 -23 3 -46z m-581 -249 c18
-26 19 -33 8 -40 -31 -19 -49 -10 -49 24 0 29 6 47 16 47 1 0 13 -14 25 -31z
m-526 -161 l0 -42 -70 -21 c-39 -12 -112 -43 -164 -69 l-94 -48 -38 38 c-21
21 -37 39 -35 41 2 2 57 19 122 37 66 19 151 50 189 69 39 19 75 35 80 36 6 0
10 -18 10 -41z"/>
<path d="M2684 2486 c-92 -18 -165 -59 -228 -127 -85 -92 -121 -175 -92 -214
13 -18 18 -19 58 -7 23 7 99 23 168 36 136 26 171 38 333 116 130 62 133 73
50 139 -88 69 -158 83 -289 57z m161 -47 c40 -11 105 -53 105 -68 0 -5 -30
-18 -67 -30 -38 -12 -92 -38 -121 -57 -39 -26 -84 -42 -177 -64 -68 -17 -129
-30 -134 -30 -44 0 49 154 113 187 50 26 189 73 216 73 14 0 43 -5 65 -11z"/>
</g>
</svg>
